<svg xmlns="http://www.w3.org/2000/svg" width="4in" height="4in" viewBox="0 0 288 288"><defs><style>.a{isolation:isolate;}.b{fill:#3080bd;}.c{fill:#004982;}.d{fill:#71c8dd;mix-blend-mode:screen;opacity:0.3;}.e,.i{fill:#2e92b6;}.e,.f,.i,.k,.s{mix-blend-mode:multiply;}.e,.f,.k,.p,.s{opacity:0.4;}.f{fill:#93a2b3;}.g,.t,.u{fill:#fff;}.h{fill:#2166af;}.i,.t{opacity:0.6;}.j{fill:#ccc;}.l{fill:#ebebeb;}.m,.p{fill:#858585;}.n{fill:#e0e0e0;}.o{fill:#b0b0b0;}.q{fill:#e9580e;}.r{fill:#b75233;}.s{fill:#d2522e;}.t,.u{mix-blend-mode:color-dodge;}.u{opacity:0.5;}.v{fill:none;stroke:#000;}.v,.w,.x,.y{stroke-linecap:round;stroke-linejoin:round;stroke-width:3.37px;}.w{fill:#e1d5b7;stroke:#d2ac6e;}.x{fill:#cce1c3;stroke:#94b367;}.y{fill:#dabfe1;stroke:#a475d2;}</style></defs><g class="a"><path class="b" d="M165.53,263s56-94.15,67.72-119.54-14.7-58.28-14.7-58.28L205.76,73.9s-35.94-22.07-59.66-7.25S36,148.9,36,148.9s-20.75,14.3-8.77,29.87c0,0,21.79,29.37,50,53.82C105.12,257.53,137,275.45,137,275.45,154,285.37,165.53,263,165.53,263Z"/><path class="c" d="M78.55,234.8h0c-.6-.53-1.2-1.06-1.79-1.6s-1.2-1-1.8-1.56c-27.12-23.9-48.15-52.09-48.36-52.38a16.74,16.74,0,0,1-3.69-13.13c1.6-10.19,12.21-17.6,12.66-17.91.82-.65,86.61-67.59,110.09-82.27,23.88-14.93,59.05,6.33,60.54,7.24l12.9,11.35c1.19,1.46,26.71,33.68,14.91,59.25-11.6,25.14-67.21,118.68-67.77,119.62-.23.44-6.25,11.9-16.16,14.77a16.74,16.74,0,0,1-13.5-2C136.29,276,105.67,258.69,78.55,234.8Zm-.7-2.84,1.8,1.59c27,23.78,57.45,41,57.76,41.17a15.14,15.14,0,0,0,12.21,1.86c9.23-2.67,15.11-13.86,15.17-14,.58-1,56.14-94.45,67.71-119.51,11.37-24.63-14.34-57.08-14.6-57.4L205.22,74.52c-.25-.13-35.68-21.54-58.68-7.16-23.4,14.63-109.13,81.52-110,82.2-.14.1-10.51,7.36-12,16.84a15.14,15.14,0,0,0,3.38,11.86C28.15,178.56,50,207.83,77.85,232Z"/><path class="d" d="M52.63,158.63c12.59-10.38,71-55.25,87.61-66,2.65-1.72,5.08-3.74,7.71-5.44,10.89-7,24.59,2.15,34.39,6.85,2.23,1.06,4.88,2.46,7.43,2.28,4.07-.28,4.75-2.76,3.92-5.46-8.39-7.34-26.83-20.82-40-19.12-5.1.66-10.89,3.31-16.43,7.09C109,99.42,37.61,153.23,36.93,153.62s-13.46,10.54-7.5,21.87c0,0,16.25,24.14,45.88,49.71,0,0-16.76-23.29-30.29-45.85C45,179.35,37.8,170.85,52.63,158.63Z"/><path class="e" d="M165.53,263s56-94.15,67.72-119.54-14.7-58.28-14.7-58.28L205.76,73.9a99.2,99.2,0,0,0-28.14-11c-4.18.68-5.55,3.27,2.6,8.78,11.94,8.06,36.09,33.1,42,47.08a34,34,0,0,1,.64,25.57s-57.36,95.26-62.38,105.32S150,263.1,150,263.1c-10.53,9.7-34.45-6.91-34.45-6.91-23-12.06-68.26-53.36-68.29-53.39a345.36,345.36,0,0,0,30.07,29.79C105.12,257.53,137,275.45,137,275.45,154,285.37,165.53,263,165.53,263Z"/><path class="f" d="M152.64,235.92s43-69,53.17-88.88c4.82-6.3-4.07-22.61-20.18-36.8s-33.39-20.95-39-15.38c-18.46,12.58-81.49,63.94-81.49,63.94s-15.43,11.27-7.55,22c0,0,14.29,20.35,33.41,36.85,18.78,16.88,40.77,28.5,40.77,28.5C143.41,252.65,152.64,235.92,152.64,235.92Z"/><path class="g" d="M151.92,232.38s40.88-65.57,50.53-84.49c4.59-6-3.86-21.49-19.17-35S151.54,93,146.17,98.3c-17.54,12-77.45,60.77-77.45,60.77s-14.67,10.71-7.18,21c0,0,13.58,19.34,31.75,35,17.85,16,38.75,27.09,38.75,27.09C143.14,248.28,151.92,232.38,151.92,232.38Z"/><path class="h" d="M83.79,186.2A11,11,0,0,1,80,186a9.49,9.49,0,0,1-4.14-2.16,9.89,9.89,0,0,1-2.77-4.07,9.27,9.27,0,0,1-.22-5.38,15.23,15.23,0,0,1,3.7-6.39,16.67,16.67,0,0,1,6.21-4.76,9.74,9.74,0,0,1,6-.45,12.08,12.08,0,0,1,5.14,2.7,10.57,10.57,0,0,1,2.93,4,9,9,0,0,1,.6,4.41,10.49,10.49,0,0,1-1.11,3.36l-3.77-1.56a7.27,7.27,0,0,0,.71-3.37,5.37,5.37,0,0,0-1.94-3.61,6.12,6.12,0,0,0-4.68-1.64q-2.6.21-5.8,3.86a13.75,13.75,0,0,0-2.87,4.38,5.7,5.7,0,0,0-.14,3.5,5.84,5.84,0,0,0,1.75,2.78,6.06,6.06,0,0,0,2.2,1.25,6.24,6.24,0,0,0,2.32.36,5.81,5.81,0,0,0,1.84-.39,8.37,8.37,0,0,0,1.82-1.07l-4.85-4.27,2.44-2.78,7.78,6.86L84.72,191l-2.93-2.58Z"/><path class="h" d="M104.64,175.65l3.62,3.19L94.74,194.19l7.66,6.74-2.82,3.2L88.3,194.19Z"/><path class="h" d="M117.3,186.81,121,190l-10,11.32a6,6,0,0,0-1.81,4,4.63,4.63,0,0,0,1.74,3.41,5.61,5.61,0,0,0,2.29,1.26,4.13,4.13,0,0,0,2.55-.2,7,7,0,0,0,2.64-2l10-11.31,3.67,3.23-10.44,11.85c-2,2.27-4.14,3.46-6.45,3.59s-4.66-.85-7-2.95a14.76,14.76,0,0,1-3.26-4,6.62,6.62,0,0,1-.77-2.31,8.63,8.63,0,0,1,.35-3.32,10.64,10.64,0,0,1,2.36-3.85Z"/><path class="h" d="M136.29,203.54l12.43,11-2.84,3.23L137.09,210l-3.6,4.08,5.36,4.72-2.42,2.75-5.36-4.72-4.65,5.28,8.78,7.75L132.38,233,120,222.08Z"/><path class="i" d="M231.14,106.72a101.18,101.18,0,0,0-12.59-21.56L205.76,73.9A101.23,101.23,0,0,0,185,64.78C183.16,71.61,212.08,102,231.14,106.72Z"/><path class="g" d="M211.51,36.12l-24.2,27.47,0,0c-1.4,2.14,6.93,12.19,18.85,22.69,12.09,10.66,23.28,17.73,25,15.79L255.3,74.7Z"/><path class="j" d="M205.64,86.93c-7.4-6.52-20.65-19.59-19.14-23.5a.84.84,0,0,1,.19-.39l24.2-27.47a.83.83,0,0,1,1.17-.07l43.79,38.58a.83.83,0,0,1,.08,1.17L231.8,102.64c-.75.85-2.57,1.46-9.67-3A138.27,138.27,0,0,1,205.64,86.93ZM188.09,64a.3.3,0,0,1-.06.11c-.65,1.26,5,9.57,18.71,21.61s22.64,16.66,23.82,15.85l23.57-26.75L211.59,37.3Z"/><path class="g" d="M220.37,43.93l-26.6,30.19q1.74,1.95,3.85,4.1l26.95-30.59Z"/><path class="j" d="M197.07,78.84l0,0c-1.39-1.41-2.7-2.8-3.88-4.12a.84.84,0,0,1,0-1.11l26.61-30.19a.83.83,0,0,1,1.17-.08l4.2,3.7a.84.84,0,0,1,.07,1.18L198.24,78.77a.85.85,0,0,1-.6.28A.84.84,0,0,1,197.07,78.84Zm-2.19-4.72c.85.93,1.76,1.89,2.71,2.87L223.4,47.7l-3-2.6Z"/><path class="g" d="M231.31,53.56l-27.2,30.88c.68.62,1.37,1.24,2.08,1.86s1.41,1.24,2.12,1.84l27.2-30.88Z"/><path class="j" d="M205.64,86.93l-2.09-1.88a.82.82,0,0,1-.07-1.16L230.68,53a.85.85,0,0,1,1.18-.07l4.2,3.7a.83.83,0,0,1,.07,1.17l-27.2,30.88a.84.84,0,0,1-1.17.08Zm-.37-2.56c1,.87,2,1.75,2.95,2.6l26.11-29.63-3-2.6Z"/><path class="g" d="M242.25,63.2l-27,30.59c1.59,1.21,3.11,2.32,4.55,3.31l26.6-30.2Z"/><path class="j" d="M214.74,94.42a.88.88,0,0,1-.27-.55.8.8,0,0,1,.2-.63l27-30.59a.84.84,0,0,1,1.18-.07L247,66.27a.84.84,0,0,1,.08,1.18l-26.61,30.2a.83.83,0,0,1-1.09.13c-1.48-1-3-2.14-4.58-3.33Zm27.58-30-25.81,29.3c1.08.81,2.15,1.59,3.19,2.32l25.57-29Z"/><path class="g" d="M253.18,72.84l-25.44,28.88c1.74.73,3,.9,3.44.37L255.3,74.7Z"/><path class="j" d="M227.19,102.34a.87.87,0,0,1-.27-.44.84.84,0,0,1,.19-.73l25.45-28.88a.83.83,0,0,1,1.17-.08l2.12,1.87a.83.83,0,0,1,.08,1.17L231.8,102.64c-1,1.1-3,.44-4.38-.15A.76.76,0,0,1,227.19,102.34ZM253.26,74l-24.1,27.35c1.09.33,1.4.17,1.4.17l23.57-26.75Z"/><path class="g" d="M211.51,36.12l-24.2,27.47,0,0c-.37.57,0,1.71.85,3.26L213.63,38Z"/><path class="j" d="M187.64,67.49a.68.68,0,0,1-.17-.21c-1-1.77-1.33-3-1-3.87a.71.71,0,0,1,.18-.37l24.2-27.47a.83.83,0,0,1,1.17-.07l2.12,1.87a.82.82,0,0,1,.07,1.17L188.81,67.42a.83.83,0,0,1-.71.27A.74.74,0,0,1,187.64,67.49Zm.45-3.53a.3.3,0,0,1-.06.11s-.12.32.34,1.34l24.09-27.35-.87-.76Z"/><path class="j" d="M193.22,74.75a.46.46,0,0,1-.07-.07,48.1,48.1,0,0,1-5.68-7.4.83.83,0,0,1,.09-1L213,37.44a.82.82,0,0,1,1.17-.07l6.74,5.93a.83.83,0,0,1,.07,1.18l-26.6,30.19a.82.82,0,0,1-.62.28A.8.8,0,0,1,193.22,74.75Zm-4-7.79a48,48,0,0,0,4.55,5.91L219.2,44l-5.49-4.84Z"/><path class="j" d="M203.56,85.06h0c-2.29-2.07-4.48-4.18-6.52-6.25a.82.82,0,0,1,0-1.13l27-30.59a.83.83,0,0,1,1.17-.08l6.74,5.94a.83.83,0,0,1,.07,1.17L204.73,85a.89.89,0,0,1-.58.28A.84.84,0,0,1,203.56,85.06Zm-4.81-6.88c1.68,1.69,3.46,3.39,5.29,5.07l26.09-29.61-5.49-4.84Z"/><path class="j" d="M207.75,88.76a.81.81,0,0,1-.27-.56.78.78,0,0,1,.2-.61l27.2-30.88a.84.84,0,0,1,1.18-.07l6.74,5.94a.83.83,0,0,1,.07,1.17l-27,30.59a.83.83,0,0,1-1.13.11c-2.31-1.76-4.67-3.67-7-5.68Zm27.83-30.32L209.49,88.05c1.91,1.61,3.81,3.16,5.69,4.61l25.89-29.39Z"/><path class="j" d="M219.29,97.72a.89.89,0,0,1-.28-.52.88.88,0,0,1,.2-.65l26.61-30.2a.83.83,0,0,1,1.17-.08l6.74,5.94a.84.84,0,0,1,.08,1.18l-25.45,28.88a.84.84,0,0,1-.94.22,48.92,48.92,0,0,1-8-4.71Zm27.23-29.65L221.09,96.94a47.63,47.63,0,0,0,6.42,3.77L252,72.91Z"/><g class="k"><path class="l" d="M211.51,36.12l-24.2,27.47,0,0c-1.4,2.14,6.93,12.19,18.85,22.69,12.09,10.66,23.28,17.73,25,15.79L255.3,74.7Z"/><path class="j" d="M205.64,86.93c-7.4-6.52-20.65-19.59-19.14-23.5a.84.84,0,0,1,.19-.39l24.2-27.47a.83.83,0,0,1,1.17-.07l43.79,38.58a.83.83,0,0,1,.08,1.17L231.8,102.64c-.75.85-2.57,1.46-9.67-3A138.27,138.27,0,0,1,205.64,86.93ZM188.09,64a.3.3,0,0,1-.06.11c-.65,1.26,5,9.57,18.71,21.61s22.64,16.66,23.82,15.85l23.57-26.75L211.59,37.3Z"/></g><g class="k"><path class="m" d="M211.51,36.12l-24.2,27.47,0,0c-1.4,2.14,6.93,12.19,18.85,22.69,12.09,10.66,23.28,17.73,25,15.79L255.3,74.7Zm5.52,44c-1.86,1.48-4,2.66-6.31,2.52a11.37,11.37,0,0,1-5-1.7,44.32,44.32,0,0,1-10.59-9.42c-1.54-2-3-4.52-2.7-7.14s2.07-5,3.68-7.06c2.68-3.41,5.34-6.84,7.88-10.36,1.58-2.2,3.65-4.37,6.54-4.51,1.31-.06,3.24,2.42,3.89,3.23,1.7,2.12,9.15,10.6,11,12.9,2.15,2.7,3.17,5.52,1.86,8.87-1.48,3.77-4.6,7.37-7.45,10.17A35.65,35.65,0,0,1,217,80.08Z"/></g><g class="k"><path class="m" d="M212.91,37.36c2.32,7.84,8.57,14.34,13.89,20.26,4.27,4.76,12.58,11.4,15.67,17.1,2.05,3.81-12.26,17.4-19.42,24.48,4.26,2.65,7.3,3.82,8.13,2.89L255.3,74.7Z"/></g><path class="n" d="M255.14,74.88c-1.72,1.93-12.85-5.23-24.85-16s-20.34-21-18.62-23,12.85,5.24,24.85,16S256.86,73,255.14,74.88Z"/><path class="o" d="M230.88,60.53l-1.15-1a138.46,138.46,0,0,1-14.54-14.88c-5.29-6.52-4.89-8.4-4.14-9.24,3.47-3.88,24,14.13,24.88,14.9l1.15,1A138.65,138.65,0,0,1,251.63,66.2c5.28,6.52,4.89,8.39,4.13,9.24C252.29,79.31,231.75,61.3,230.88,60.53Zm4-9c-12.94-11.4-21.43-15.79-22.55-15-.64,1.25,5,9.61,18.56,21.77l1.14,1c12.94,11.4,21.43,15.78,22.55,15,.65-1.25-5-9.61-18.56-21.77Z"/><path class="p" d="M247.85,68.35c-1.25,1.41-8.73-3.24-16.71-10.38S217.73,43.9,219,42.49s8.73,3.25,16.71,10.39S249.11,67,247.85,68.35Z"/><path class="q" d="M245.33,64.27s14.27-23.14,17.91-29.8a10.22,10.22,0,0,0-.56-10.54L261,22.41a10.2,10.2,0,0,0-10.52.77c-6.15,4.45-27.31,21.53-27.31,21.53l0,0s0,0,0,0c-.87,1,3.39,6.16,9.51,11.56s11.79,9,12.66,8a0,0,0,0,1,0,0Z"/><path class="r" d="M232.09,56.92c-2.66-2.34-11-10-9.74-12.5a.76.76,0,0,1,.25-.36c.21-.17,21.24-17.15,27.34-21.55a11.07,11.07,0,0,1,11.35-.86.74.74,0,0,1,.21.13l1.73,1.53a1,1,0,0,1,.16.19A11.09,11.09,0,0,1,264,34.86C260.36,41.47,246.18,64.47,246,64.7a.81.81,0,0,1-.27.28C243.49,66.67,234.77,59.28,232.09,56.92Zm-8.23-11.74c.15,1.1,3.45,5.31,9.33,10.49s10.42,7.89,11.56,7.94c1.47-2.38,14.36-23.32,17.76-29.54a9.3,9.3,0,0,0-.47-9.6l-1.55-1.36a9.29,9.29,0,0,0-9.57.74C245.18,28,226.09,43.38,223.86,45.18Z"/><path class="s" d="M245.33,64.27s14.27-23.14,17.91-29.8a10.22,10.22,0,0,0-.56-10.54l-.33-.29c-7.52,8.3-26.78,30.85-30.85,30.64l-1.17-.09c.74.69,1.51,1.4,2.31,2.11,6.12,5.39,11.79,9,12.66,8a0,0,0,0,1,0,0Z"/><path class="t" d="M257.58,23.75s-4-.19-12.1,6.93-17.39,15.43-17.39,15.43.39,2.91,7.56-3S257.58,23.75,257.58,23.75Z"/><path class="u" d="M212.21,44.74s-2.31-1.46-5.78,2.69-13.77,13.69-13.26,17,4.89,7.92,12.36.26S216.81,47.28,212.21,44.74Z"/><line class="v" x1="150.93" y1="123.52" x2="144.74" y2="156.2"/><line class="v" x1="176.29" y1="155.65" x2="144.74" y2="156.2"/><line class="v" x1="112.36" y1="152.87" x2="144.74" y2="156.2"/><circle class="w" cx="144.74" cy="156.2" r="9.54"/><circle class="x" cx="176.29" cy="155.65" r="9.54"/><circle class="x" cx="150.93" cy="123.52" r="9.54"/><circle class="y" cx="112.36" cy="152.87" r="9.54"/></g></svg>